<svg xmlns="http://www.w3.org/2000/svg" viewBox="0 0 816 456" width="816" height="456" font-family="ui-monospace, monospace">
<defs><pattern id="hatch" width="6" height="6" patternUnits="userSpaceOnUse" patternTransform="rotate(45)"><rect width="6" height="6" fill="#e53935" opacity="0.35"/><line x1="0" y1="0" x2="0" y2="6" stroke="#b71c1c" stroke-width="1.5"/></pattern></defs>
<polygon points="264.0,408.0 552.0,408.0 552.0,48.0 264.0,48.0" fill="#c9b458" fill-opacity="0.22" stroke="#a08b2e" stroke-width="1"><title>L1:0 NWELL (shared across the column)</title></polygon>
<polygon points="114.0,264.0 222.0,264.0 222.0,72.0 114.0,72.0" fill="#4caf50" fill-opacity="0.55" stroke="#2e7d32" stroke-width="1"><title>L2:0 N-left: PD1 (36 nm)</title></polygon>
<polygon points="132.0,384.0 204.0,384.0 204.0,252.0 132.0,252.0" fill="#4caf50" fill-opacity="0.55" stroke="#2e7d32" stroke-width="1"><title>L2:0 N-left: PG1 (24 nm)</title></polygon>
<polygon points="300.0,312.0 360.0,312.0 360.0,72.0 300.0,72.0" fill="#4caf50" fill-opacity="0.55" stroke="#2e7d32" stroke-width="1"><title>L2:0 P-left: PU1 (20 nm)</title></polygon>
<polygon points="456.0,384.0 516.0,384.0 516.0,144.0 456.0,144.0" fill="#4caf50" fill-opacity="0.55" stroke="#2e7d32" stroke-width="1"><title>L2:0 P-right: PU2 (20 nm)</title></polygon>
<polygon points="594.0,384.0 702.0,384.0 702.0,192.0 594.0,192.0" fill="#4caf50" fill-opacity="0.55" stroke="#2e7d32" stroke-width="1"><title>L2:0 N-right: PD2 (36 nm)</title></polygon>
<polygon points="612.0,204.0 684.0,204.0 684.0,72.0 612.0,72.0" fill="#4caf50" fill-opacity="0.55" stroke="#2e7d32" stroke-width="1"><title>L2:0 N-right: PG2 (24 nm)</title></polygon>
<polygon points="84.0,177.0 420.0,177.0 420.0,135.0 84.0,135.0" fill="url(#hatch)" fill-opacity="0.75" stroke="#b71c1c" stroke-width="1"><title>L3:0 gate A: PD1+PU1 (driven by QB)</title></polygon>
<polygon points="564.0,177.0 732.0,177.0 732.0,135.0 564.0,135.0" fill="url(#hatch)" fill-opacity="0.75" stroke="#b71c1c" stroke-width="1"><title>L3:0 gate PG2 (WL)</title></polygon>
<polygon points="396.0,321.0 732.0,321.0 732.0,279.0 396.0,279.0" fill="url(#hatch)" fill-opacity="0.75" stroke="#b71c1c" stroke-width="1"><title>L3:0 gate B: PU2+PD2 (driven by Q)</title></polygon>
<polygon points="84.0,321.0 252.0,321.0 252.0,279.0 84.0,279.0" fill="url(#hatch)" fill-opacity="0.75" stroke="#b71c1c" stroke-width="1"><title>L3:0 gate PG1 (WL)</title></polygon>
<polygon points="420.0,183.0 564.0,183.0 564.0,129.0 420.0,129.0" fill="none" fill-opacity="0.9" stroke="#b71c1c" stroke-width="1" stroke-dasharray="4 3"><title>L3:1 gate cut</title></polygon>
<polygon points="252.0,327.0 396.0,327.0 396.0,273.0 252.0,273.0" fill="none" fill-opacity="0.9" stroke="#b71c1c" stroke-width="1" stroke-dasharray="4 3"><title>L3:1 gate cut</title></polygon>
<polygon points="132.0,390.0 204.0,390.0 204.0,348.0 132.0,348.0" fill="#9e9e9e" fill-opacity="0.9" stroke="#616161" stroke-width="1"><title>L4:0 BL contact</title></polygon>
<polygon points="114.0,108.0 222.0,108.0 222.0,66.0 114.0,66.0" fill="#9e9e9e" fill-opacity="0.9" stroke="#616161" stroke-width="1"><title>L4:0 VSS contact</title></polygon>
<polygon points="114.0,249.0 222.0,249.0 222.0,207.0 114.0,207.0" fill="#9e9e9e" fill-opacity="0.9" stroke="#616161" stroke-width="1"><title>L4:0 Q node (N)</title></polygon>
<polygon points="612.0,108.0 684.0,108.0 684.0,66.0 612.0,66.0" fill="#9e9e9e" fill-opacity="0.9" stroke="#616161" stroke-width="1"><title>L4:0 BLB contact</title></polygon>
<polygon points="594.0,390.0 702.0,390.0 702.0,348.0 594.0,348.0" fill="#9e9e9e" fill-opacity="0.9" stroke="#616161" stroke-width="1"><title>L4:0 VSS contact</title></polygon>
<polygon points="594.0,249.0 702.0,249.0 702.0,207.0 594.0,207.0" fill="#9e9e9e" fill-opacity="0.9" stroke="#616161" stroke-width="1"><title>L4:0 QB node (N)</title></polygon>
<polygon points="300.0,120.0 360.0,120.0 360.0,66.0 300.0,66.0" fill="#9e9e9e" fill-opacity="0.9" stroke="#616161" stroke-width="1"><title>L4:0 VDD contact</title></polygon>
<polygon points="456.0,390.0 516.0,390.0 516.0,336.0 456.0,336.0" fill="#9e9e9e" fill-opacity="0.9" stroke="#616161" stroke-width="1"><title>L4:0 VDD contact</title></polygon>
<polygon points="300.0,312.0 360.0,312.0 360.0,207.0 300.0,207.0" fill="#9e9e9e" fill-opacity="0.9" stroke="#616161" stroke-width="1"><title>L4:0 Q node (P drain)</title></polygon>
<polygon points="300.0,312.0 426.0,312.0 426.0,270.0 300.0,270.0" fill="#9e9e9e" fill-opacity="0.9" stroke="#616161" stroke-width="1"><title>L4:0 butted: Q -> gate B</title></polygon>
<polygon points="456.0,249.0 516.0,249.0 516.0,144.0 456.0,144.0" fill="#9e9e9e" fill-opacity="0.9" stroke="#616161" stroke-width="1"><title>L4:0 QB node (P drain)</title></polygon>
<polygon points="390.0,186.0 516.0,186.0 516.0,144.0 390.0,144.0" fill="#9e9e9e" fill-opacity="0.9" stroke="#616161" stroke-width="1"><title>L4:0 butted: QB -> gate A</title></polygon>
<polygon points="390.0,321.0 426.0,321.0 426.0,279.0 390.0,279.0" fill="#212121" fill-opacity="0.9" stroke="#000000" stroke-width="1"><title>L5:0 CB gate B end</title></polygon>
<polygon points="390.0,177.0 426.0,177.0 426.0,135.0 390.0,135.0" fill="#212121" fill-opacity="0.9" stroke="#000000" stroke-width="1"><title>L5:0 CB gate A end</title></polygon>
<polygon points="54.0,321.0 114.0,321.0 114.0,279.0 54.0,279.0" fill="#212121" fill-opacity="0.9" stroke="#000000" stroke-width="1"><title>L5:0 CB PG1 (WL, shared at the cell edge)</title></polygon>
<polygon points="702.0,177.0 762.0,177.0 762.0,135.0 702.0,135.0" fill="#212121" fill-opacity="0.9" stroke="#000000" stroke-width="1"><title>L5:0 CB PG2 (WL, shared)</title></polygon>
<polygon points="144.0,252.0 372.0,252.0 372.0,204.0 144.0,204.0" fill="#1e88e5" fill-opacity="0.62" stroke="#0d47a1" stroke-width="1"><title>L7:0 Q strap</title></polygon>
<polygon points="444.0,252.0 672.0,252.0 672.0,204.0 444.0,204.0" fill="#1e88e5" fill-opacity="0.62" stroke="#0d47a1" stroke-width="1"><title>L7:0 QB strap</title></polygon>
<polygon points="144.0,393.0 192.0,393.0 192.0,345.0 144.0,345.0" fill="#1e88e5" fill-opacity="0.62" stroke="#0d47a1" stroke-width="1"><title>L7:0 BL pad</title></polygon>
<polygon points="624.0,111.0 672.0,111.0 672.0,63.0 624.0,63.0" fill="#1e88e5" fill-opacity="0.62" stroke="#0d47a1" stroke-width="1"><title>L7:0 BLB pad</title></polygon>
<polygon points="114.0,111.0 276.0,111.0 276.0,63.0 114.0,63.0" fill="#1e88e5" fill-opacity="0.62" stroke="#0d47a1" stroke-width="1"><title>L7:0 VSS pad</title></polygon>
<polygon points="540.0,393.0 702.0,393.0 702.0,345.0 540.0,345.0" fill="#1e88e5" fill-opacity="0.62" stroke="#0d47a1" stroke-width="1"><title>L7:0 VSS pad</title></polygon>
<polygon points="312.0,111.0 432.0,111.0 432.0,63.0 312.0,63.0" fill="#1e88e5" fill-opacity="0.62" stroke="#0d47a1" stroke-width="1"><title>L7:0 VDD pad</title></polygon>
<polygon points="384.0,393.0 504.0,393.0 504.0,345.0 384.0,345.0" fill="#1e88e5" fill-opacity="0.62" stroke="#0d47a1" stroke-width="1"><title>L7:0 VDD pad</title></polygon>
<polygon points="60.0,324.0 108.0,324.0 108.0,276.0 60.0,276.0" fill="#1e88e5" fill-opacity="0.62" stroke="#0d47a1" stroke-width="1"><title>L7:0 WL pad</title></polygon>
<polygon points="708.0,180.0 756.0,180.0 756.0,132.0 708.0,132.0" fill="#1e88e5" fill-opacity="0.62" stroke="#0d47a1" stroke-width="1"><title>L7:0 WL pad</title></polygon>
<polygon points="153.0,243.0 183.0,243.0 183.0,213.0 153.0,213.0" fill="#ffffff" fill-opacity="1.0" stroke="#000000" stroke-width="1"><title>L6:0 V0</title></polygon>
<polygon points="315.0,243.0 345.0,243.0 345.0,213.0 315.0,213.0" fill="#ffffff" fill-opacity="1.0" stroke="#000000" stroke-width="1"><title>L6:0 V0</title></polygon>
<polygon points="471.0,243.0 501.0,243.0 501.0,213.0 471.0,213.0" fill="#ffffff" fill-opacity="1.0" stroke="#000000" stroke-width="1"><title>L6:0 V0</title></polygon>
<polygon points="633.0,243.0 663.0,243.0 663.0,213.0 633.0,213.0" fill="#ffffff" fill-opacity="1.0" stroke="#000000" stroke-width="1"><title>L6:0 V0</title></polygon>
<polygon points="153.0,384.0 183.0,384.0 183.0,354.0 153.0,354.0" fill="#ffffff" fill-opacity="1.0" stroke="#000000" stroke-width="1"><title>L6:0 V0</title></polygon>
<polygon points="633.0,102.0 663.0,102.0 663.0,72.0 633.0,72.0" fill="#ffffff" fill-opacity="1.0" stroke="#000000" stroke-width="1"><title>L6:0 V0</title></polygon>
<polygon points="153.0,102.0 183.0,102.0 183.0,72.0 153.0,72.0" fill="#ffffff" fill-opacity="1.0" stroke="#000000" stroke-width="1"><title>L6:0 V0</title></polygon>
<polygon points="633.0,384.0 663.0,384.0 663.0,354.0 633.0,354.0" fill="#ffffff" fill-opacity="1.0" stroke="#000000" stroke-width="1"><title>L6:0 V0</title></polygon>
<polygon points="321.0,102.0 351.0,102.0 351.0,72.0 321.0,72.0" fill="#ffffff" fill-opacity="1.0" stroke="#000000" stroke-width="1"><title>L6:0 V0</title></polygon>
<polygon points="462.0,384.0 492.0,384.0 492.0,354.0 462.0,354.0" fill="#ffffff" fill-opacity="1.0" stroke="#000000" stroke-width="1"><title>L6:0 V0</title></polygon>
<polygon points="69.0,315.0 99.0,315.0 99.0,285.0 69.0,285.0" fill="#ffffff" fill-opacity="1.0" stroke="#000000" stroke-width="1"><title>L6:0 V0</title></polygon>
<polygon points="717.0,171.0 747.0,171.0 747.0,141.0 717.0,141.0" fill="#ffffff" fill-opacity="1.0" stroke="#000000" stroke-width="1"><title>L6:0 V0</title></polygon>
<polygon points="84.0,372.0 732.0,372.0 732.0,84.0 84.0,84.0" fill="none" fill-opacity="1.0" stroke="#8a8f98" stroke-width="1" stroke-dasharray="4 3"><title>L235:0 prBoundary</title></polygon>
<text x="168.0" y="196.0" text-anchor="middle" font-size="12" font-weight="700" fill="#111">BL</text>
<text x="252.0" y="268.0" text-anchor="middle" font-size="12" font-weight="700" fill="#111">VSS</text>
<text x="408.0" y="268.0" text-anchor="middle" font-size="12" font-weight="700" fill="#111">VDD</text>
<text x="564.0" y="268.0" text-anchor="middle" font-size="12" font-weight="700" fill="#111">VSS</text>
<text x="648.0" y="196.0" text-anchor="middle" font-size="12" font-weight="700" fill="#111">BLB</text>
<text x="408.0" y="232.0" text-anchor="middle" font-size="12" font-weight="700" fill="#111">WL</text>
<text x="168.0" y="232.0" text-anchor="middle" font-size="12" font-weight="700" fill="#111">Q</text>
<text x="648.0" y="232.0" text-anchor="middle" font-size="12" font-weight="700" fill="#111">QB</text>
</svg>