<svg xmlns="http://www.w3.org/2000/svg" viewBox="0 0 560 398" role="img" style="max-width:100%;height:auto;font-family:'DejaVu Sans Mono', 'Liberation Mono', Menlo, monospace">
<rect width="560" height="398" fill="#d9d9d9"/>
<rect width="560" height="22" fill="#0c5cc4"/>
<text x="8" y="15" fill="#fff" font-size="10.5" font-weight="600">Pegasus LVS  –  Comparison Results  (NAND2_GAA_X1)</text>
<text x="552" y="15" fill="#fff" font-size="10" text-anchor="end">–  □  ×</text>
<rect y="22" width="560" height="24" fill="#f2f2f2"/>
<text x="8" y="38" fill="#1a1a1a" font-size="10">File  View  Setup  Extraction  Comparison  Reports  Window  Help</text>
<text x="552" y="38" fill="#1a1a1a" font-size="10" text-anchor="end">cādence</text>
<g transform="translate(0,46)">
<rect width="560" height="330" fill="#ffffff"/>
<rect x="12" y="12" width="536" height="52" rx="4" fill="#e3f5e8" stroke="#1a8f3c" stroke-width="1.5"/>
<text x="280" y="36" fill="#1a8f3c" font-size="18" text-anchor="middle" font-weight="700">LVS MATCH</text>
<text x="280" y="54" fill="#1a1a1a" font-size="9.5" text-anchor="middle">Layout cell NAND2_GAA_X1  vs  schematic cell NAND2_GAA_X1</text>
<rect x="12" y="78" width="536" height="22" fill="#e4e8ef"/>
<text x="20" y="93" fill="#1a1a1a" font-size="9.5" font-weight="600" text-anchor="start">Object</text>
<text x="260" y="93" fill="#1a1a1a" font-size="9.5" font-weight="600" text-anchor="end">Layout</text>
<text x="360" y="93" fill="#1a1a1a" font-size="9.5" font-weight="600" text-anchor="end">Schematic</text>
<text x="400" y="93" fill="#1a1a1a" font-size="9.5" font-weight="600" text-anchor="start">Status</text>
<text x="20" y="114" fill="#1a1a1a" font-size="9.5">Ports</text>
<text x="260" y="114" fill="#1a1a1a" font-size="9.5" text-anchor="end">5</text>
<text x="360" y="114" fill="#1a1a1a" font-size="9.5" text-anchor="end">5</text>
<text x="400" y="114" fill="#1a8f3c" font-size="9.5" font-weight="600">✓ matched</text>
<rect x="12" y="120" width="536" height="20" fill="#f5f7fb"/>
<text x="20" y="134" fill="#1a1a1a" font-size="9.5">Nets</text>
<text x="260" y="134" fill="#1a1a1a" font-size="9.5" text-anchor="end">6</text>
<text x="360" y="134" fill="#1a1a1a" font-size="9.5" text-anchor="end">6</text>
<text x="400" y="134" fill="#1a8f3c" font-size="9.5" font-weight="600">✓ matched</text>
<text x="20" y="154" fill="#1a1a1a" font-size="9.5">Instances</text>
<text x="260" y="154" fill="#1a1a1a" font-size="9.5" text-anchor="end">4</text>
<text x="360" y="154" fill="#1a1a1a" font-size="9.5" text-anchor="end">4</text>
<text x="400" y="154" fill="#1a8f3c" font-size="9.5" font-weight="600">✓ matched</text>
<rect x="12" y="160" width="536" height="20" fill="#f5f7fb"/>
<text x="20" y="174" fill="#1a1a1a" font-size="9.5">   NMOS  nsheet_n</text>
<text x="260" y="174" fill="#1a1a1a" font-size="9.5" text-anchor="end">2</text>
<text x="360" y="174" fill="#1a1a1a" font-size="9.5" text-anchor="end">2</text>
<text x="400" y="174" fill="#1a8f3c" font-size="9.5" font-weight="600">✓ matched</text>
<text x="20" y="194" fill="#1a1a1a" font-size="9.5">   PMOS  nsheet_p</text>
<text x="260" y="194" fill="#1a1a1a" font-size="9.5" text-anchor="end">2</text>
<text x="360" y="194" fill="#1a1a1a" font-size="9.5" text-anchor="end">2</text>
<text x="400" y="194" fill="#1a8f3c" font-size="9.5" font-weight="600">✓ matched</text>
<text x="20" y="212" fill="#1a1a1a" font-size="9.5" font-weight="600">Port map</text>
<text x="20" y="228" fill="#1a1a1a" font-size="9">layout    : A, B, VDD, VSS, Y</text>
<text x="20" y="242" fill="#1a1a1a" font-size="9">schematic : A, B, VDD, VSS, Y</text>
<text x="20" y="262" fill="#1a1a1a" font-size="9">device classes: match   net classes: match   unrecognised devices: 0</text>
</g>
<rect y="376" width="560" height="22" fill="#f2f2f2"/>
<text x="8" y="391" fill="#1a1a1a" font-size="9">gaa_nand2.lvs.rpt   |   virtual connect: VDD VSS</text>
<text x="552" y="391" fill="#1a1a1a" font-size="9" text-anchor="end">ref. extractor – sign-off with Pegasus in the guest</text>
</svg>