<svg xmlns="http://www.w3.org/2000/svg" viewBox="0 0 560 240" role="img" class="chart" data-plot='{"ml": 52, "mt": 12, "pw": 492, "ph": 188, "xlim": [0, 0.7], "ylim": [0, 30], "log": false, "xlab": "V_IN (V)", "ylab": "|A_v|"}' data-series='[{"name": "|A_v| = |dV_OUT/dV_IN|", "xy": [[0.005, 0.0001357], [0.01, 0.0001614], [0.015, 0.000192], [0.02, 0.0002284], [0.025, 0.0002717], [0.03, 0.0003232], [0.035, 0.0003844], [0.04, 0.0004573], [0.045, 0.0005441], [0.05, 0.0006473], [0.055, 0.00077], [0.06, 0.000916], [0.065, 0.00109], [0.07, 0.001296], [0.075, 0.001542], [0.08, 0.001834], [0.085, 0.002181], [0.09, 0.002593], [0.095, 0.003082], [0.1, 0.003664], [0.105, 0.004353], [0.11, 0.005171], [0.115, 0.00614], [0.12, 0.007287], [0.125, 0.008644], [0.13, 0.01025], [0.135, 0.01214], [0.14, 0.01437], [0.145, 0.017], [0.15, 0.02008], [0.155, 0.02369], [0.16, 0.02791], [0.165, 0.03284], [0.17, 0.03856], [0.175, 0.0452], [0.18, 0.05287], [0.185, 0.06169], [0.19, 0.0718], [0.195, 0.08333], [0.2, 0.09642], [0.205, 0.1112], [0.21, 0.1278], [0.215, 0.1464], [0.22, 0.1671], [0.225, 0.1901], [0.23, 0.2153], [0.235, 0.2431], [0.24, 0.2735], [0.245, 0.3067], [0.25, 0.343], [0.255, 0.3826], [0.26, 0.4262], [0.265, 0.4742], [0.27, 0.5276], [0.275, 0.5876], [0.28, 0.6562], [0.285, 0.7358], [0.29, 0.8303], [0.295, 0.9452], [0.3, 1.089], [0.305, 1.276], [0.31, 1.53], [0.315, 1.893], [0.32, 2.448], [0.325, 3.386], [0.33, 5.204], [0.335, 9.515], [0.34, 20.06], [0.345, 28.0], [0.35, 20.93], [0.355, 10.08], [0.36, 5.489], [0.365, 3.559], [0.37, 2.569], [0.375, 1.985], [0.38, 1.604], [0.385, 1.338], [0.39, 1.141], [0.395, 0.989], [0.4, 0.8675], [0.405, 0.7673], [0.41, 0.6826], [0.415, 0.6094], [0.42, 0.5452], [0.425, 0.4881], [0.43, 0.4368], [0.435, 0.3904], [0.44, 0.3483], [0.445, 0.31], [0.45, 0.2751], [0.455, 0.2434], [0.46, 0.2147], [0.465, 0.1887], [0.47, 0.1654], [0.475, 0.1444], [0.48, 0.1258], [0.485, 0.1092], [0.49, 0.0945], [0.495, 0.08159], [0.5, 0.07027], [0.505, 0.06038], [0.51, 0.05177], [0.515, 0.04431], [0.52, 0.03786], [0.525, 0.0323], [0.53, 0.02752], [0.535, 0.02342], [0.54, 0.01991], [0.545, 0.01691], [0.55, 0.01434], [0.555, 0.01216], [0.56, 0.01031], [0.565, 0.008728], [0.57, 0.007389], [0.575, 0.006252], [0.58, 0.005289], [0.585, 0.004472], [0.59, 0.003781], [0.595, 0.003196], [0.6, 0.002701], [0.605, 0.002282], [0.61, 0.001928], [0.615, 0.001629], [0.62, 0.001376], [0.625, 0.001163], [0.63, 0.0009822], [0.635, 0.0008297], [0.64, 0.0007009], [0.645, 0.0005921], [0.65, 0.0005001], [0.655, 0.0004225], [0.66, 0.0003569], [0.665, 0.0003015], [0.67, 0.0002548], [0.675, 0.0002152], [0.68, 0.0001819], [0.685, 0.0001537], [0.69, 0.0001298], [0.695, 0.0001097]], "color": "var(--c2)"}]' style="max-width:100%;height:auto;font-family:var(--font-ui);font-size:11px">
<line x1="52.0" y1="12" x2="52.0" y2="200" stroke="var(--grid)" stroke-width="1"/>
<text x="52.0" y="216" text-anchor="middle" fill="var(--ink-2)">0.0</text>
<line x1="122.3" y1="12" x2="122.3" y2="200" stroke="var(--grid)" stroke-width="1"/>
<text x="122.3" y="216" text-anchor="middle" fill="var(--ink-2)">0.1</text>
<line x1="192.6" y1="12" x2="192.6" y2="200" stroke="var(--grid)" stroke-width="1"/>
<text x="192.6" y="216" text-anchor="middle" fill="var(--ink-2)">0.2</text>
<line x1="262.9" y1="12" x2="262.9" y2="200" stroke="var(--grid)" stroke-width="1"/>
<text x="262.9" y="216" text-anchor="middle" fill="var(--ink-2)">0.3</text>
<line x1="333.1" y1="12" x2="333.1" y2="200" stroke="var(--grid)" stroke-width="1"/>
<text x="333.1" y="216" text-anchor="middle" fill="var(--ink-2)">0.4</text>
<line x1="403.4" y1="12" x2="403.4" y2="200" stroke="var(--grid)" stroke-width="1"/>
<text x="403.4" y="216" text-anchor="middle" fill="var(--ink-2)">0.5</text>
<line x1="473.7" y1="12" x2="473.7" y2="200" stroke="var(--grid)" stroke-width="1"/>
<text x="473.7" y="216" text-anchor="middle" fill="var(--ink-2)">0.6</text>
<line x1="544.0" y1="12" x2="544.0" y2="200" stroke="var(--grid)" stroke-width="1"/>
<text x="544.0" y="216" text-anchor="middle" fill="var(--ink-2)">0.7</text>
<line x1="52" y1="200.0" x2="544" y2="200.0" stroke="var(--grid)"/>
<text x="46" y="204.0" text-anchor="end" fill="var(--ink-2)">0</text>
<line x1="52" y1="173.1" x2="544" y2="173.1" stroke="var(--grid)"/>
<text x="46" y="177.1" text-anchor="end" fill="var(--ink-2)">4.3</text>
<line x1="52" y1="146.3" x2="544" y2="146.3" stroke="var(--grid)"/>
<text x="46" y="150.3" text-anchor="end" fill="var(--ink-2)">8.6</text>
<line x1="52" y1="119.4" x2="544" y2="119.4" stroke="var(--grid)"/>
<text x="46" y="123.4" text-anchor="end" fill="var(--ink-2)">13</text>
<line x1="52" y1="92.6" x2="544" y2="92.6" stroke="var(--grid)"/>
<text x="46" y="96.6" text-anchor="end" fill="var(--ink-2)">17</text>
<line x1="52" y1="65.7" x2="544" y2="65.7" stroke="var(--grid)"/>
<text x="46" y="69.7" text-anchor="end" fill="var(--ink-2)">21</text>
<line x1="52" y1="38.9" x2="544" y2="38.9" stroke="var(--grid)"/>
<text x="46" y="42.9" text-anchor="end" fill="var(--ink-2)">26</text>
<line x1="52" y1="12.0" x2="544" y2="12.0" stroke="var(--grid)"/>
<text x="46" y="16.0" text-anchor="end" fill="var(--ink-2)">30</text>
<rect x="52" y="12" width="492" height="188" fill="none" stroke="var(--ink-3)"/>
<polyline points="55.5,200.0 59.0,200.0 62.5,200.0 66.1,200.0 69.6,200.0 73.1,200.0 76.6,200.0 80.1,200.0 83.6,200.0 87.1,200.0 90.7,200.0 94.2,200.0 97.7,200.0 101.2,200.0 104.7,200.0 108.2,200.0 111.7,200.0 115.3,200.0 118.8,200.0 122.3,200.0 125.8,200.0 129.3,200.0 132.8,200.0 136.3,200.0 139.9,199.9 143.4,199.9 146.9,199.9 150.4,199.9 153.9,199.9 157.4,199.9 160.9,199.9 164.5,199.8 168.0,199.8 171.5,199.8 175.0,199.7 178.5,199.7 182.0,199.6 185.5,199.6 189.1,199.5 192.6,199.4 196.1,199.3 199.6,199.2 203.1,199.1 206.6,199.0 210.1,198.8 213.7,198.7 217.2,198.5 220.7,198.3 224.2,198.1 227.7,197.9 231.2,197.6 234.7,197.3 238.3,197.0 241.8,196.7 245.3,196.3 248.8,195.9 252.3,195.4 255.8,194.8 259.3,194.1 262.9,193.2 266.4,192.0 269.9,190.4 273.4,188.1 276.9,184.7 280.4,178.8 283.9,167.4 287.5,140.4 291.0,74.3 294.5,24.5 298.0,68.9 301.5,136.8 305.0,165.6 308.5,177.7 312.1,183.9 315.6,187.6 319.1,189.9 322.6,191.6 326.1,192.9 329.6,193.8 333.1,194.6 336.7,195.2 340.2,195.7 343.7,196.2 347.2,196.6 350.7,196.9 354.2,197.3 357.7,197.6 361.3,197.8 364.8,198.1 368.3,198.3 371.8,198.5 375.3,198.7 378.8,198.8 382.3,199.0 385.9,199.1 389.4,199.2 392.9,199.3 396.4,199.4 399.9,199.5 403.4,199.6 406.9,199.6 410.5,199.7 414.0,199.7 417.5,199.8 421.0,199.8 424.5,199.8 428.0,199.9 431.5,199.9 435.1,199.9 438.6,199.9 442.1,199.9 445.6,199.9 449.1,199.9 452.6,200.0 456.1,200.0 459.7,200.0 463.2,200.0 466.7,200.0 470.2,200.0 473.7,200.0 477.2,200.0 480.7,200.0 484.3,200.0 487.8,200.0 491.3,200.0 494.8,200.0 498.3,200.0 501.8,200.0 505.3,200.0 508.9,200.0 512.4,200.0 515.9,200.0 519.4,200.0 522.9,200.0 526.4,200.0 529.9,200.0 533.5,200.0 537.0,200.0 540.5,200.0" fill="none" stroke="var(--c2)" stroke-width="2"><title>|A_v| = |dV_OUT/dV_IN|</title></polyline>
<polyline points="52.0,193.7 544.0,193.7" fill="none" stroke="var(--ink-3)" stroke-width="1" stroke-dasharray="2 4"><title>unity gain</title></polyline>
<text x="298" y="234" text-anchor="middle" fill="var(--ink)">V_IN (V)</text>
<text transform="translate(14,106) rotate(-90)" text-anchor="middle" fill="var(--ink)">|A_v|</text>
<line x1="62" y1="26" x2="80" y2="26" stroke="var(--c2)" stroke-width="2"/>
<text x="86" y="30" fill="var(--ink)">|A_v| = |dV_OUT/dV_IN|</text>
<line x1="62" y1="41" x2="80" y2="41" stroke="var(--ink-3)" stroke-width="2" stroke-dasharray="2 4"/>
<text x="86" y="45" fill="var(--ink)">unity gain</text>

</svg>